<svg width="159" height="74" viewBox="0 0 159 74" fill="none" xmlns="http://www.w3.org/2000/svg">
<path d="M28.19 73.1005C27.83 73.1005 27.47 73.0405 27.11 72.9305C25.29 72.3405 24.3 70.3805 24.89 68.5705L46.52 2.39048C47.11 0.570475 49.07 -0.419525 50.88 0.170475C52.7 0.760475 53.69 2.72048 53.1 4.53048L31.48 70.7105C31 72.1705 29.65 73.1005 28.19 73.1005Z" fill="white"/>
<path d="M17.22 68.8005C16.67 68.8005 16.11 68.6705 15.59 68.3905C12.63 66.8005 10.47 64.6605 9.16 62.0205C7.51 58.6905 7.33 54.7605 8.6 50.3305C9.34 47.7705 9.89 44.2805 8.33 42.2105C6.75 40.1105 3.5 40.0205 3.46 40.0205C1.55 40.0205 0 38.4705 0 36.5605C0 34.6505 1.54 33.1105 3.43 33.1005C3.55 33.1005 6.78 32.9905 8.34 30.8805C9.87 28.8105 9.32 25.3405 8.59 22.7905C7.1 17.5905 7.6 13.1205 10.09 9.50048C14.49 3.09048 23.46 2.23048 23.84 2.20048C25.74 2.03048 27.42 3.44048 27.59 5.34048C27.76 7.24048 26.36 8.92048 24.46 9.09048C22.76 9.25048 17.88 10.3505 15.79 13.4205C14.52 15.2805 14.35 17.7205 15.25 20.8605C16.95 26.7805 16.48 31.5605 13.85 35.0505C13.43 35.6105 12.98 36.1005 12.5 36.5405C12.97 36.9805 13.43 37.4705 13.85 38.0305C16.48 41.5205 16.95 46.3005 15.25 52.2205C13.87 57.0205 15.02 60.2105 18.85 62.2705C20.53 63.1705 21.17 65.2705 20.27 66.9505C19.65 68.1105 18.45 68.7805 17.22 68.7805V68.8005Z" fill="white"/>
<path d="M51.38 70.9205C49.61 70.9205 48.1 69.5605 47.94 67.7605C47.77 65.8605 49.17 64.1805 51.07 64.0105C52.77 63.8505 57.65 62.7505 59.74 59.6805C61.01 57.8205 61.18 55.3805 60.28 52.2405C58.58 46.3205 59.05 41.5405 61.68 38.0505C62.1 37.4905 62.55 37.0005 63.03 36.5605C62.56 36.1205 62.1 35.6305 61.68 35.0705C59.05 31.5805 58.58 26.8005 60.28 20.8805C61.01 18.3305 61.61 14.6305 58.36 11.9505C56.89 10.7305 56.68 8.55048 57.89 7.08048C59.11 5.61048 61.29 5.40048 62.76 6.61048C66.01 9.29048 69.38 14.2805 66.93 22.8005C66.2 25.3405 65.65 28.8105 67.18 30.8905C68.74 33.0005 71.97 33.1105 72.09 33.1105C73.99 33.1205 75.52 34.6705 75.52 36.5705C75.52 38.4705 73.98 40.0205 72.09 40.0305C71.98 40.0305 68.74 40.1405 67.17 42.2505C65.64 44.3205 66.19 47.7905 66.92 50.3405C68.41 55.5405 67.91 60.0105 65.42 63.6305C61.03 70.0205 52.06 70.8805 51.68 70.9205C51.58 70.9205 51.47 70.9305 51.37 70.9305L51.38 70.9205Z" fill="white"/>
<path d="M103.49 26.7505H98.95L96.01 21.0505L94.82 21.7605V26.7405H90.78V11.8505H94.82V18.3205C95.02 17.9205 95.43 17.2805 96.05 16.4105L99.18 11.8505H103.58L98.88 18.5205L103.5 26.7405L103.49 26.7505Z" fill="white"/>
<path d="M110.44 26.9505C108.52 26.9505 107.02 26.4405 105.96 25.4205C104.9 24.4005 104.37 22.9405 104.37 21.0505C104.37 19.1605 104.86 17.6005 105.85 16.5605C106.83 15.5205 108.24 15.0005 110.07 15.0005C111.9 15.0005 113.15 15.4505 114.1 16.3605C115.05 17.2705 115.52 18.5705 115.52 20.2805V22.0505H108.4C108.43 22.7005 108.66 23.2005 109.11 23.5705C109.55 23.9405 110.16 24.1205 110.93 24.1205C111.63 24.1205 112.27 24.0505 112.86 23.9205C113.45 23.7905 114.08 23.5605 114.77 23.2405V26.1005C114.15 26.4205 113.5 26.6405 112.83 26.7605C112.16 26.8805 111.37 26.9405 110.45 26.9405L110.44 26.9505ZM110.21 17.7105C109.74 17.7105 109.35 17.8605 109.03 18.1505C108.71 18.4405 108.53 18.9105 108.47 19.5405H111.89C111.88 18.9805 111.72 18.5405 111.42 18.2105C111.12 17.8805 110.71 17.7105 110.2 17.7105H110.21Z" fill="white"/>
<path d="M123.33 26.9505C121.41 26.9505 119.91 26.4405 118.85 25.4205C117.79 24.4005 117.26 22.9405 117.26 21.0505C117.26 19.1605 117.75 17.6005 118.74 16.5605C119.72 15.5205 121.13 15.0005 122.96 15.0005C124.79 15.0005 126.04 15.4505 126.99 16.3605C127.94 17.2705 128.41 18.5705 128.41 20.2805V22.0505H121.29C121.32 22.7005 121.55 23.2005 122 23.5705C122.44 23.9405 123.05 24.1205 123.82 24.1205C124.52 24.1205 125.16 24.0505 125.75 23.9205C126.34 23.7905 126.97 23.5605 127.66 23.2405V26.1005C127.04 26.4205 126.39 26.6405 125.72 26.7605C125.05 26.8805 124.26 26.9405 123.34 26.9405L123.33 26.9505ZM123.1 17.7105C122.63 17.7105 122.24 17.8605 121.92 18.1505C121.6 18.4405 121.42 18.9105 121.36 19.5405H124.78C124.77 18.9805 124.61 18.5405 124.31 18.2105C124.01 17.8805 123.6 17.7105 123.09 17.7105H123.1Z" fill="white"/>
<path d="M137.59 26.9505C137.01 26.9505 136.48 26.8505 136.02 26.6605C135.56 26.4705 135.1 26.1205 134.64 25.6205H134.46C134.58 26.4305 134.64 26.9305 134.64 27.1305V31.7705H130.66V15.2005H133.9L134.46 16.6705H134.64C135.38 15.5605 136.4 15.0005 137.71 15.0005C139.02 15.0005 139.99 15.5305 140.72 16.5905C141.45 17.6505 141.81 19.1005 141.81 20.9505C141.81 22.8005 141.43 24.2805 140.67 25.3505C139.91 26.4205 138.89 26.9505 137.59 26.9505ZM136.26 18.1305C135.68 18.1305 135.27 18.3405 135.03 18.7605C134.8 19.1805 134.67 19.8005 134.65 20.6205V20.9405C134.65 21.9305 134.78 22.6505 135.05 23.0905C135.31 23.5305 135.73 23.7505 136.3 23.7505C136.81 23.7505 137.18 23.5305 137.41 23.0905C137.64 22.6505 137.76 21.9305 137.76 20.9105C137.76 19.8905 137.64 19.2105 137.41 18.7805C137.18 18.3505 136.8 18.1305 136.26 18.1305Z" fill="white"/>
<path d="M89.56 34.8105C88.26 34.8105 87.25 35.3405 86.52 36.4005C85.79 37.4605 85.43 38.9305 85.43 40.8005C85.43 44.6805 86.91 46.6305 89.86 46.6305C90.75 46.6305 91.62 46.5105 92.46 46.2605C93.3 46.0105 94.14 45.7105 94.99 45.3605V49.9705C93.31 50.7205 91.4 51.0905 89.27 51.0905C86.22 51.0905 83.89 50.2105 82.26 48.4405C80.64 46.6705 79.82 44.1205 79.82 40.7805C79.82 38.6905 80.21 36.8505 81 35.2705C81.79 33.6905 82.92 32.4705 84.4 31.6205C85.88 30.7705 87.61 30.3405 89.61 30.3405C91.79 30.3405 93.88 30.8105 95.86 31.7605L94.19 36.0505C93.44 35.7005 92.7 35.4105 91.95 35.1705C91.2 34.9305 90.4 34.8105 89.55 34.8105H89.56Z" fill="white"/>
<path d="M111.3 50.8105L110.31 47.0305H103.75L102.73 50.8105H96.74L103.33 30.5405H110.61L117.28 50.8105H111.32H111.3ZM109.17 42.5505L108.3 39.2405C108.1 38.5005 107.85 37.5505 107.56 36.3805C107.27 35.2105 107.08 34.3705 106.99 33.8705C106.91 34.3405 106.74 35.1105 106.5 36.1905C106.26 37.2705 105.71 39.3905 104.88 42.5605H109.17V42.5505Z" fill="white"/>
<path d="M119.45 50.8105V30.6305H124.9V46.4105H132.67V50.8105H119.44H119.45Z" fill="white"/>
<path d="M144.7 50.8105L140.57 36.2705H140.45C140.64 38.7505 140.74 40.6705 140.74 42.0405V50.8105H135.91V30.6305H143.17L147.38 44.9605H147.49L151.62 30.6305H158.9V50.8205H153.89V41.9705C153.89 41.5105 153.89 41.0005 153.91 40.4405C153.93 39.8805 153.99 38.5005 154.1 36.3105H153.98L149.91 50.8205H144.72L144.7 50.8105Z" fill="white"/>
<path d="M86.04 65.3705C84.17 65.3705 83.24 64.3405 83.24 62.2905C83.24 61.2705 83.49 60.4905 84 59.9505C84.51 59.4105 85.24 59.1405 86.19 59.1405C86.88 59.1405 87.51 59.2805 88.06 59.5505L87.58 60.8205C87.32 60.7205 87.08 60.6305 86.86 60.5605C86.64 60.4905 86.42 60.4605 86.19 60.4605C85.34 60.4605 84.91 61.0605 84.91 62.2805C84.91 63.5005 85.34 64.0405 86.19 64.0405C86.5 64.0405 86.8 64.0005 87.07 63.9105C87.34 63.8305 87.61 63.6905 87.88 63.5205V64.9205C87.61 65.0905 87.35 65.2005 87.08 65.2705C86.81 65.3305 86.47 65.3705 86.06 65.3705H86.04Z" fill="white"/>
<path d="M100.22 62.2505C100.22 63.2305 99.96 63.9905 99.45 64.5405C98.94 65.0905 98.22 65.3705 97.3 65.3705C96.72 65.3705 96.22 65.2405 95.77 64.9905C95.33 64.7405 94.99 64.3805 94.75 63.9005C94.51 63.4205 94.4 62.8805 94.4 62.2505C94.4 61.2705 94.66 60.5105 95.17 59.9605C95.68 59.4105 96.4 59.1405 97.33 59.1405C97.91 59.1405 98.41 59.2705 98.86 59.5205C99.31 59.7705 99.64 60.1305 99.88 60.6005C100.12 61.0705 100.23 61.6205 100.23 62.2505H100.22ZM96.07 62.2505C96.07 62.8405 96.17 63.2905 96.36 63.6005C96.56 63.9005 96.87 64.0605 97.31 64.0605C97.75 64.0605 98.06 63.9105 98.25 63.6105C98.44 63.3105 98.54 62.8605 98.54 62.2605C98.54 61.6605 98.44 61.2205 98.25 60.9205C98.06 60.6205 97.74 60.4705 97.3 60.4705C96.86 60.4705 96.55 60.6205 96.35 60.9105C96.16 61.2105 96.06 61.6505 96.06 62.2505H96.07Z" fill="white"/>
<path d="M108.97 65.3705C108.26 65.3705 107.71 65.1005 107.31 64.5505C106.91 64.0005 106.71 63.2405 106.71 62.2705C106.71 61.3005 106.92 60.5205 107.33 59.9705C107.74 59.4205 108.3 59.1505 109.02 59.1505C109.78 59.1505 110.35 59.4405 110.75 60.0305H110.8C110.72 59.5805 110.68 59.1805 110.68 58.8305V56.9105H112.32V65.2705H111.06L110.74 64.4905H110.67C110.3 65.0805 109.73 65.3805 108.97 65.3805V65.3705ZM109.54 64.0605C109.96 64.0605 110.27 63.9405 110.46 63.6905C110.65 63.4505 110.76 63.0305 110.78 62.4505V62.2705C110.78 61.6305 110.68 61.1605 110.48 60.8805C110.28 60.6005 109.96 60.4605 109.51 60.4605C109.14 60.4605 108.86 60.6105 108.66 60.9205C108.46 61.2305 108.36 61.6805 108.36 62.2705C108.36 62.8605 108.46 63.3005 108.67 63.6005C108.87 63.8905 109.17 64.0405 109.55 64.0405L109.54 64.0605Z" fill="white"/>
<path d="M122.25 65.3705C121.28 65.3705 120.53 65.1005 119.98 64.5705C119.43 64.0405 119.16 63.2805 119.16 62.3005C119.16 61.3205 119.41 60.5205 119.91 59.9705C120.41 59.4205 121.11 59.1505 122 59.1505C122.89 59.1505 123.51 59.3905 123.98 59.8805C124.45 60.3705 124.69 61.0305 124.69 61.8805V62.6705H120.82C120.84 63.1405 120.98 63.5005 121.23 63.7605C121.48 64.0205 121.85 64.1505 122.31 64.1505C122.67 64.1505 123.01 64.1105 123.34 64.0405C123.67 63.9705 124 63.8405 124.35 63.6805V64.9505C124.06 65.0905 123.76 65.2005 123.43 65.2705C123.1 65.3405 122.71 65.3705 122.24 65.3705H122.25ZM122.02 60.3105C121.67 60.3105 121.4 60.4205 121.2 60.6405C121 60.8605 120.89 61.1705 120.86 61.5805H123.16C123.16 61.1805 123.05 60.8605 122.84 60.6405C122.64 60.4205 122.36 60.3105 122.01 60.3105H122.02Z" fill="white"/>
<path d="M134.88 59.1405C135.1 59.1405 135.29 59.1605 135.43 59.1905L135.31 60.7305C135.18 60.6905 135.02 60.6805 134.83 60.6805C134.31 60.6805 133.9 60.8105 133.61 61.0805C133.32 61.3505 133.17 61.7205 133.17 62.2105V65.2705H131.53V59.2705H132.77L133.01 60.2805H133.09C133.28 59.9405 133.53 59.6705 133.84 59.4705C134.16 59.2605 134.5 59.1605 134.87 59.1605L134.88 59.1405Z" fill="white"/>
<path d="M146.21 63.4805C146.21 64.1005 146 64.5605 145.57 64.8905C145.14 65.2105 144.5 65.3705 143.65 65.3705C143.21 65.3705 142.84 65.3405 142.53 65.2805C142.22 65.2205 141.93 65.1305 141.67 65.0205V63.6705C141.97 63.8105 142.32 63.9305 142.7 64.0305C143.08 64.1305 143.42 64.1805 143.71 64.1805C144.3 64.1805 144.6 64.0105 144.6 63.6605C144.6 63.5305 144.56 63.4305 144.48 63.3505C144.4 63.2705 144.27 63.1805 144.07 63.0805C143.88 62.9805 143.62 62.8605 143.3 62.7205C142.84 62.5305 142.5 62.3505 142.28 62.1805C142.06 62.0205 141.91 61.8305 141.81 61.6105C141.71 61.4005 141.66 61.1305 141.66 60.8205C141.66 60.2905 141.87 59.8705 142.28 59.5805C142.69 59.2905 143.28 59.1405 144.04 59.1405C144.8 59.1405 145.47 59.3005 146.15 59.6105L145.66 60.7905C145.36 60.6605 145.08 60.5605 144.82 60.4705C144.56 60.3805 144.29 60.3505 144.02 60.3505C143.54 60.3505 143.29 60.4805 143.29 60.7405C143.29 60.8905 143.37 61.0105 143.52 61.1205C143.68 61.2305 144.02 61.3905 144.54 61.6005C145.01 61.7905 145.35 61.9705 145.57 62.1305C145.79 62.2905 145.95 62.4805 146.05 62.7005C146.15 62.9205 146.21 63.1705 146.21 63.4705V63.4805Z" fill="white"/>
</svg>
